External Loads File
version=1
nRows=53
nColumns=13
Range=5.000000e-03-10 seconds
endheader
time 	forceRightX 	forceRightY 	forceRightZ 	pointRightX 	pointRightY 	pointRightZ 	forceLeftX 	forceLeftY 	forceLeftZ 	pointLeftX 	pointLeftY 	pointLeftZ 		
2.505000 68.688622 1314.220073 -0.000000 0.336404 0.183192 -0.098569 21.843867 -110.877507 -0.000000 0.167806 0.440111 -0.338187
2.510000 74.523214 1350.220211 -0.000000 0.330156 0.177710 -0.098486 14.916937 -107.384731 -0.000000 0.174902 0.446111 -0.338388
2.515000 81.246808 1388.961600 -0.000000 0.323581 0.172534 -0.098372 7.036800 -101.376309 -0.000000 0.182020 0.451622 -0.338611
2.520000 90.670528 1427.543494 -0.000000 0.316660 0.167907 -0.098227 -1.389229 -92.153006 -0.000000 0.189422 0.456651 -0.338654
2.525000 105.200166 1462.313418 -0.000000 0.309559 0.163702 -0.098070 -9.949033 -79.090348 -0.000000 0.197448 0.461489 -0.339146
2.530000 120.868757 1489.533355 -0.000000 0.302221 0.159878 -0.097934 -17.887873 -61.780961 -0.000000 0.205126 0.465888 -0.339078
2.535000 136.521937 1505.075763 -0.000000 0.294982 0.156452 -0.097876 -24.763485 -40.132947 -0.000000 0.212630 0.469784 -0.339059
2.540000 155.531733 1504.470748 -0.000000 0.287687 0.153561 -0.097846 -30.286340 -14.405322 -0.000000 0.220718 0.473195 -0.339047
2.545000 174.079672 1484.375323 -0.000000 0.280386 0.151001 -0.097703 -34.030374 14.415189 -0.000000 0.228706 0.476273 -0.338888
2.550000 191.628094 1442.050723 -0.000000 0.273045 0.148918 -0.097472 -35.863065 44.771163 -0.000000 0.236785 0.478779 -0.338925
2.555000 205.068904 1376.304251 -0.000000 0.265812 0.147348 -0.097276 -35.984043 74.761690 -0.000000 0.244640 0.481086 -0.338857
2.560000 212.970744 1287.203562 -0.000000 0.258782 0.146276 -0.097062 -34.859893 102.719875 -0.000000 0.252271 0.483345 -0.339089
2.565000 215.425052 1176.085965 -0.000000 0.251823 0.145539 -0.096817 -33.002308 127.497628 -0.000000 0.259759 0.485366 -0.339151
2.570000 210.748136 1046.145918 -0.000000 0.245005 0.145353 -0.096553 -31.203682 148.432409 -0.000000 0.266699 0.487074 -0.339176
2.575000 200.963784 901.428813 -0.000000 0.238452 0.145664 -0.096242 -29.902104 165.500987 -0.000000 0.273628 0.488093 -0.339458
2.580000 186.902461 747.580806 -0.000000 0.232089 0.146404 -0.095952 -29.638106 179.142085 -0.000000 0.280440 0.488574 -0.339860
2.585000 170.669547 590.926944 -0.000000 0.225721 0.147751 -0.095637 -30.685585 190.259533 -0.000000 0.287191 0.488433 -0.340466
2.590000 154.502663 437.842138 -0.000000 0.219231 0.149767 -0.095307 -33.137278 200.126369 -0.000000 0.293977 0.487550 -0.341493
2.595000 140.514754 293.748966 -0.000000 0.212195 0.152529 -0.095118 -36.977284 210.256378 -0.000000 0.300465 0.486204 -0.342232
2.600000 130.816594 162.072710 -0.000000 0.204512 0.156146 -0.095174 -41.960680 222.246097 -0.000000 0.306686 0.484301 -0.342939
2.605000 126.600673 44.011219 -0.000000 0.196053 0.160516 -0.095362 -47.900472 237.515152 -0.000000 0.312581 0.481962 -0.343462
2.610000 127.736328 -61.268221 -0.000000 0.186883 0.165765 -0.095817 -54.438354 257.113351 -0.000000 0.318329 0.478931 -0.344133
2.615000 132.468104 -155.346066 -0.000000 0.177466 0.172082 -0.096446 -61.512901 281.425663 -0.000000 0.323971 0.475244 -0.344813
2.620000 138.329552 -239.238055 -0.000000 0.168563 0.178649 -0.096708 -69.483074 310.125278 -0.000000 0.329627 0.470795 -0.345332
2.625000 141.878841 -313.116247 -0.000000 0.159745 0.185498 -0.097397 -77.731465 342.665566 -0.000000 0.335254 0.465847 -0.345699
2.630000 141.426464 -375.191646 -0.000000 0.152151 0.192195 -0.097850 -87.086335 377.892214 -0.000000 0.340751 0.460434 -0.345920
2.635000 136.062787 -423.504665 -0.000000 0.145634 0.198513 -0.098133 -97.605794 414.606645 -0.000000 0.345792 0.454637 -0.345855
2.640000 125.454302 -456.822228 -0.000000 0.139944 0.204590 -0.098279 -108.545605 451.770360 -0.000000 0.350521 0.448393 -0.346023
2.645000 110.926842 -474.817484 -0.000000 0.134934 0.210665 -0.098464 -119.627583 488.540580 -0.000000 0.354702 0.441633 -0.346376
2.650000 93.955838 -478.443936 -0.000000 0.130181 0.216861 -0.098654 -129.905465 524.727260 -0.000000 0.358562 0.434264 -0.346837
2.655000 76.396871 -469.358403 -0.000000 0.125430 0.223457 -0.099051 -138.339948 560.511029 -0.000000 0.362366 0.426273 -0.347518
2.660000 60.430211 -449.549134 -0.000000 0.120767 0.230762 -0.099502 -144.148641 595.993269 -0.000000 0.366179 0.417679 -0.347918
2.665000 48.598942 -421.195155 -0.000000 0.116576 0.238767 -0.099975 -147.587745 630.684819 -0.000000 0.369926 0.408774 -0.347960
2.670000 42.107233 -386.730522 -0.000000 0.112536 0.247229 -0.100169 -148.474107 663.810089 -0.000000 0.373465 0.399772 -0.347624
2.675000 41.027864 -348.500740 -0.000000 0.107943 0.256074 -0.101312 -146.518668 694.465512 -0.000000 0.376595 0.390935 -0.347033
2.680000 46.025766 -308.333444 -0.000000 0.105962 0.265009 -0.100211 -144.658520 721.317940 -0.000000 0.379596 0.381903 -0.346351
2.685000 54.302552 -268.143048 -0.000000 0.103391 0.273745 -0.100223 -139.630274 744.785871 -0.000000 0.382130 0.372157 -0.345901
2.690000 65.578131 -229.494161 -0.000000 0.100649 0.282523 -0.101193 -134.163201 764.506629 -0.000000 0.384469 0.362688 -0.345575
2.695000 78.455520 -194.208670 -0.000000 0.099384 0.291409 -0.101136 -129.446374 780.833961 -0.000000 0.386485 0.353198 -0.345232
2.700000 90.986705 -164.277008 -0.000000 0.098676 0.300517 -0.101108 -124.816446 794.755221 -0.000000 0.387922 0.343603 -0.345159
2.705000 101.777340 -141.152850 -0.000000 0.098529 0.309617 -0.101089 -121.079510 807.329972 -0.000000 0.389046 0.333848 -0.345283
2.710000 109.419794 -125.695575 -0.000000 0.098998 0.318870 -0.101104 -117.784261 820.126020 -0.000000 0.390144 0.323743 -0.344994
2.715000 113.170596 -117.636869 -0.000000 0.100352 0.328191 -0.100991 -116.365131 834.643247 -0.000000 0.390970 0.313548 -0.345099
2.720000 112.474666 -116.101697 -0.000000 0.101866 0.337621 -0.101124 -116.652496 852.677423 -0.000000 0.390813 0.303266 -0.344480
2.725000 107.531282 -119.434472 -0.000000 0.103869 0.346827 -0.101297 -120.122549 875.746916 -0.000000 0.390246 0.293142 -0.344291
2.730000 98.652572 -126.077117 -0.000000 0.106619 0.356063 -0.101474 -125.431498 905.643209 -0.000000 0.389110 0.283195 -0.344188
2.735000 86.525653 -134.404883 -0.000000 0.109963 0.365255 -0.101609 -131.144223 943.951525 -0.000000 0.387425 0.273116 -0.344036
2.740000 72.342324 -142.781789 -0.000000 0.113739 0.374283 -0.101749 -137.645550 991.625140 -0.000000 0.385140 0.263178 -0.343883
2.745000 57.184150 -150.088038 -0.000000 0.118098 0.383163 -0.101915 -143.971887 1049.319523 -0.000000 0.382241 0.253518 -0.343665
2.750000 42.016571 -155.637225 -0.000000 0.122965 0.391826 -0.102110 -149.034775 1117.194986 -0.000000 0.378722 0.244126 -0.343535
2.755000 27.558852 -159.144571 -0.000000 0.128212 0.400223 -0.102243 -151.417193 1194.911435 -0.000000 0.374572 0.234897 -0.343335
2.760000 14.406477 -160.621622 -0.000000 0.133916 0.408359 -0.102318 -150.478698 1281.412814 -0.000000 0.369921 0.226038 -0.343060
2.765000 2.756641 -160.343340 -0.000000 0.140145 0.416260 -0.102365 -144.269255 1375.092510 -0.000000 0.364815 0.217444 -0.342727
